<?xml version="1.0" encoding="utf-8" ?>	<!-- Generator: Assembly 2.4 - http://assemblyapp.co -->	<svg version="1.1" xmlns="http://www.w3.org/2000/svg" xmlns:xlink="http://www.w3.org/1999/xlink" width="4096.00" height="4096.00" viewBox="0 0 4096.0 4096.0">		<g id="document" transform="scale(1.0 1.0) translate(2048.0 2048.0)">			<path d="M-793.837,-1823.01 C-979.963,-1847.02 -1148.51,-1713.95 -1172.52,-1527.82 L-1525.14,1179.02 C-1549.15,1365.14 -1419.9,1536.64 -1230.39,1561.08 L800.07,1823.01 C986.196,1847.02 1158.12,1714.38 1182.13,1528.26 L1444.06,-502.199 L559.8,-1648.39 L-793.837,-1823.01 Z M237.804,-485.787 L357.854,-1416.41 L1168.43,-365.736 L237.804,-485.787 Z " fill="#679498" fill-opacity="1.00" />			<g>				<g>					<path d="M-305.881,-39.8607 C-281.376,-229.816 -415.501,-403.669 -605.456,-428.174 C-795.411,-452.678 -969.265,-318.554 -993.769,-128.598 C-1018.27,61.3567 -884.149,235.21 -694.194,259.715 C-504.239,284.219 -330.385,150.094 -305.881,-39.8607 Z " fill="#4c1500" fill-opacity="1.00" />					<path d="M-614.608,-287.427 C-621.512,-320.923 -654.263,-342.48 -687.759,-335.576 C-721.255,-328.673 -742.813,-295.922 -735.909,-262.426 C-729.005,-228.929 -696.254,-207.372 -662.758,-214.276 C-629.262,-221.18 -607.705,-253.931 -614.608,-287.427 Z " fill="#ffffff" fill-opacity="1.00" />					<path d="M-375.771,-81.3395 C-388.888,-144.982 -451.115,-185.941 -514.757,-172.824 C-578.4,-159.706 -619.359,-97.4802 -606.242,-33.8374 C-593.125,29.8054 -530.898,70.7644 -467.255,57.647 C-403.613,44.5297 -362.654,-17.6967 -375.771,-81.3395 Z " fill="#ffffff" fill-opacity="1.00" />				</g>				<g>					<path d="M1000,128.598 C1024.51,-61.3568 890.382,-235.21 700.427,-259.715 C510.472,-284.219 336.618,-150.094 312.114,39.8607 C287.61,229.816 421.734,403.669 611.689,428.174 C801.644,452.678 975.498,318.554 1000,128.598 Z " fill="#4c1500" fill-opacity="1.00" />					<path d="M679.156,-120.392 C672.256,-153.892 639.506,-175.454 606.007,-168.554 C572.508,-161.654 550.945,-128.904 557.845,-95.4052 C564.745,-61.906 597.495,-40.3431 630.994,-47.2432 C664.493,-54.1432 686.056,-86.8932 679.156,-120.392 Z " fill="#ffffff" fill-opacity="1.00" />					<path d="M918.011,85.7182 C904.901,22.0698 842.675,-18.8996 779.027,-5.78953 C715.379,7.3205 674.409,69.5456 687.519,133.194 C700.629,196.842 762.854,237.812 826.503,224.702 C890.151,211.592 931.121,149.367 918.011,85.7182 Z " fill="#ffffff" fill-opacity="1.00" />				</g>			</g>			<g>				<path d="M51.9359,989.07 C66.4444,876.601 -0.512095,777.877 -95.5007,762.158 C-190.929,749.848 -281.187,831.756 -295.696,944.225 C-310.204,1056.69 -243.687,1158.83 -148.259,1171.14 C-52.8307,1183.45 37.4274,1101.54 51.9359,989.07 Z " fill="#2f2417" fill-opacity="1.00" />				<path d="M-368.593,730.394 C-314.062,737.429 -264.041,698.838 -257.006,644.308 C-249.972,589.777 -288.562,539.756 -343.093,532.721 C-397.623,525.687 -447.645,564.278 -454.679,618.808 C-461.713,673.338 -423.123,723.36 -368.593,730.394 Z " fill="#493723" fill-opacity="1.00" />				<path d="M311.6,534.02 L-438.194,437.297 C-462.051,434.219 -485.138,452.03 -488.215,475.887 L-529.982,799.661 C-556.361,1004.15 -393.424,1191.48 -158.262,1221.82 C73.4924,1251.72 278.636,1111.87 305.015,907.376 L346.782,583.602 C349.86,559.745 335.457,537.098 311.6,534.02 Z " fill="#473723" fill-opacity="1.00" />				<path d="M260.038,530.833 L-387.511,447.3 L-401.58,556.36 C-406.856,597.258 -377.61,639.144 -333.304,644.86 L157.469,708.17 C198.367,713.446 236.845,683.761 245.529,643.302 C245.529,643.302 260.038,530.833 260.038,530.833 Z " fill="#ffffff" fill-opacity="1.00" />				<path d="M-399.382,539.32 C-332.759,506.336 -206.548,494.898 -66.8143,512.924 C72.9199,530.949 192.096,574.042 248.607,619.445 L260.917,524.017 L-386.632,440.483 L-399.382,539.32 Z " fill="#dce8eb" fill-opacity="1.00" />				<path d="M49.1889,1037.22 C63.6974,924.754 -2.81949,822.622 -98.2477,810.312 C-193.676,798.002 -283.934,879.91 -298.443,992.379 C-312.951,1104.85 -246.434,1206.98 -151.006,1219.29 C-55.5777,1231.6 34.6804,1149.69 49.1889,1037.22 Z " fill="#2f2417" fill-opacity="1.00" />				<path d="M-428.389,1086.49 C-369.019,1163.45 -272.05,1217.53 -159.581,1232.04 C-47.1118,1246.55 60.4085,1218.84 137.365,1159.47 C89.8686,1097.91 -10.9479,1046.79 -133.641,1030.96 C-256.335,1015.14 -366.824,1039 -428.389,1086.49 Z " fill="#ff5063" fill-opacity="1.00" />			</g>		</g>	</svg>